<?xml version="1.0" encoding="UTF-8" standalone="no"?>
<!-- Created with Inkscape (http://www.inkscape.org/) -->

<svg
   xmlns:dc="http://purl.org/dc/elements/1.1/"
   xmlns:cc="http://creativecommons.org/ns#"
   xmlns:rdf="http://www.w3.org/1999/02/22-rdf-syntax-ns#"
   xmlns:svg="http://www.w3.org/2000/svg"
   xmlns="http://www.w3.org/2000/svg"
   xmlns:sodipodi="http://sodipodi.sourceforge.net/DTD/sodipodi-0.dtd"
   xmlns:inkscape="http://www.inkscape.org/namespaces/inkscape"
   id="svg2"
   version="1.1"
   class="animate me_photo_nav_svg"
   inkscape:version="0.91 r13725"
   width="518"
   height="518"
   viewBox="0 0 518 518"
   sodipodi:docname="about.svg">
  <metadata
     id="metadata8">
    <rdf:RDF>
      <cc:Work
         rdf:about="">
        <dc:format>image/svg+xml</dc:format>
        <dc:type
           rdf:resource="http://purl.org/dc/dcmitype/StillImage" />
        <dc:title></dc:title>
      </cc:Work>
    </rdf:RDF>
  </metadata>
  <defs
     id="defs6" />
  <sodipodi:namedview
     pagecolor="#ffffff"
     bordercolor="#666666"
     borderopacity="1"
     objecttolerance="10"
     gridtolerance="10"
     guidetolerance="10"
     inkscape:pageopacity="0"
     inkscape:pageshadow="2"
     inkscape:window-width="1366"
     inkscape:window-height="739"
     id="namedview4"
     showgrid="false"
     inkscape:zoom="0.4609375"
     inkscape:cx="476.95525"
     inkscape:cy="311.30363"
     inkscape:window-x="1920"
     inkscape:window-y="156"
     inkscape:window-maximized="1"
     inkscape:current-layer="svg2" />
  <path
     style="fill:none;stroke-width:4;stroke-linecap:round;stroke-linejoin:round;stroke-miterlimit:10"
     d="m 219.87726,512.55044 c -1.10853,-0.18673 -6.725,-1.34883 -12.5,-2.48243 C 117.30866,492.38808 41.094655,422.66098 14.058755,333.20378 8.0840552,313.43472 2.2639952,284.56247 2.0050952,269.06207 c -0.1286,-7.7 2.343,-33.54775 4.86407,-24.9365 -8.58935,89.98182 52.3206898,190.95303 124.0080948,233.41257 32.8546,19.45934 72.9137,32.13924 110.5,34.97653 2.475,0.18683 25.1339,1.99323 18.5339,2.02552 -6.6,0.0323 -12.9,2.58096 -40.0339,-1.98975 z m 49.19492,-1.60272 c 95.46015,-17.28101 168.17998,-51.55648 210.63948,-123.24393 19.4936,-32.91245 34.24108,-89.5644 34.98054,-129.40362 0,0 1.18656,20.76317 0.22216,28.40362 -5.27829,41.81698 -22.3324,93.81925 -54.197,133.5 -8.7536,10.90075 -27.4393,29.58648 -38.3401,38.34004 -39.6807,31.86462 -137.49988,56.77515 -177.97458,57.45124 -7.7,0.12862 24.6695,-5.04735 24.6695,-5.04735 z m -25.19492,-40.32239 c -1.65,-0.23137 -7.275,-0.91364 -12.5,-1.51616 -5.225,-0.60252 -15.35,-2.57133 -22.5,-4.37513 -83.644,-21.10168 -145.787205,-89.41797 -159.214505,-175.03026 -2.3771,-15.15671 -2.3771,-47.84329 0,-63 14.5655,-92.86951 86.345005,-164.64908 179.214505,-179.2145 15.1568,-2.37714 47.8433,-2.37714 63,0 92.8696,14.56542 164.6491,86.34499 179.2145,179.2145 2.3772,15.15671 2.3772,47.84329 0,63 -14.5031,92.47271 -86.4075,164.68815 -178.2738,179.04521 -9.5099,1.48623 -42.6592,2.75714 -48.9407,1.87634 z m 44.5,-4.02968 c 84.1568,-11.37008 154.5372,-73.7618 175.4022,-155.49273 4.9757,-19.49048 6.6638,-32.72529 6.6836,-52.39913 0.034,-33.75195 -6.4412,-62.0568 -21.0464,-92 -13.26,-27.18512 -29.1855,-47.95916 -51.5394,-67.23073 -32.3234,-27.86639 -69.99,-44.60616 -113.0911,-50.25981 -10.6954,-1.40292 -36.638,-1.43534 -47.9089,-0.0599 -64.604,7.88418 -121.3651,43.87725 -155.176405,98.39976 -20.9936,33.85325 -31.5503,71.33108 -31.4239,111.55943 0.103,32.76455 6.6876,61.12056 21.041,90.61155 21.0286,43.20614 54.211605,76.37543 97.559305,97.51895 37.7582,18.41712 78.0853,24.94793 119.5,19.35255 z m -81.4702,-93.98623 c -8.7211,-3.19264 -12.6454,-9.64064 -12.6327,-20.75648 0.017,-14.96011 3.8141,-27.18876 25.7069,-82.79149 9.0178,-22.90328 16.396,-42.33364 16.396,-43.17857 0,-0.84493 -0.6902,-2.22646 -1.5338,-3.07006 -3.3664,-3.36644 -11.5924,2.25438 -23.124,15.80055 -10.7212,12.59426 -14.065,15.59041 -17.3994,15.59041 -3.126,0 -5.9428,-2.78161 -5.9428,-5.86858 0,-7.66192 19.2422,-29.1965 36.6135,-40.97538 16.4274,-11.13884 40.2148,-16.30131 53.5108,-11.61317 5.3835,1.89818 11.4318,7.63376 13.0709,12.39484 1.5594,4.52988 1.4839,18.19398 -0.133,24.06229 -1.3999,5.08106 -18.9924,53.73925 -28.7433,79.5 -7.0707,18.67999 -8.7929,26.99712 -5.826,28.13564 3.2328,1.24055 8.648,-2.94041 21.9111,-16.91706 7.2028,-7.59037 14.1144,-14.05746 15.359,-14.3713 4.5143,-1.13828 7.9022,4.39587 6.0395,9.8653 -4.39,12.88969 -30.3704,37.0258 -51.0162,47.39478 -15.4239,7.74633 -32.2655,10.45583 -42.2565,6.79828 z m 27.4702,-3.63925 c 15.6618,-4.80931 31.4603,-15.12912 47.0297,-30.72047 12.6156,-12.63344 18.4489,-21.46923 16.3632,-24.78553 -0.609,-0.96821 -1.7525,-1.88779 -2.5412,-2.0435 -0.7888,-0.15572 -6.8057,5.42837 -13.3711,12.40908 -14.3286,15.235 -18.3597,18.37403 -23.5954,18.37403 -6.1971,0 -7.3608,-4.27657 -3.9894,-14.66091 1.0427,-3.2115 9.0836,-25.41409 17.8688,-49.33909 8.7852,-23.925 16.4822,-45.88465 17.1043,-48.79922 5.6342,-26.39499 -9.5603,-38.26607 -39.1968,-30.62352 -14.9202,3.84757 -31.9737,15.19348 -45.9075,30.54283 -12.3328,13.58568 -15.2547,19.47685 -10.8338,21.84286 2.3402,1.25241 4.8529,-0.99131 16.4985,-14.73247 9.1226,-10.76405 16.0084,-16.21124 21.4083,-16.93552 4.8177,-0.64619 7.1624,1.46174 7.1624,6.43904 0,2.28393 -6.1644,19.27541 -16.9346,46.67857 -17.4993,44.52376 -21.9594,57.63176 -24.0773,70.76144 -1.9716,12.22187 0.1964,19.9476 7.0135,24.99377 5.5651,4.11948 17.7413,4.36245 29.9984,0.59861 z M 275.24016,182.56 c -1.4505,-0.25701 -5.0376,-1.9048 -7.9715,-3.66175 -4.2813,-2.5639 -5.9321,-4.36543 -8.3628,-9.12659 -2.6537,-5.19778 -3.0218,-6.93085 -2.9744,-14 0.045,-6.73956 0.4981,-8.92675 2.7499,-13.28445 3.5735,-6.91517 8.7871,-11.97048 15.6095,-15.13545 8.0631,-3.74061 19.4058,-3.68358 26.7744,0.13462 8.918,4.62097 13.312,12.38032 13.312,23.50714 0,3.76969 -0.7227,8.97512 -1.6061,11.56762 -2.1969,6.44763 -10.0275,14.80855 -16.4615,17.57638 -5.0377,2.16717 -15.6344,3.38553 -21.0695,2.42248 z m 17.4532,-3.94825 c 5.8608,-1.99697 13.8999,-9.13339 16.537,-14.68004 6.4485,-13.5634 1.7887,-28.79787 -10.5339,-34.43935 -4.756,-2.17739 -6.5547,-2.47115 -12.6807,-2.07102 -8.1742,0.53392 -13.7504,2.96102 -19.1051,8.31577 -6.1767,6.17669 -7.9865,10.81699 -8.0114,20.54068 -0.02,7.81033 0.2466,9.00883 2.9935,13.45578 5.7687,9.33908 18.5963,13.0366 30.8006,8.87818 z M 5.4501352,231.23784 c 0.1716,-9.99002 1.26972,-18.54155 2.87852,-26.03406 C 29.875555,104.85345 106.48459,29.32912 206.83489,7.78224 214.32749,6.17347 223.80484,6.1328 231.87726,3.6601 239.24069,1.40457 289.1099,4.30217 274.95548,5.92883 224.96783,4.21505 177.19146,15.22212 147.87726,29.71582 97.349155,54.69828 56.871755,95.17567 31.889355,145.70378 17.395655,175.01792 8.9773052,228.16353 5.3219052,264.72817 c -0.22,2.2 -0.004,-25.79033 0.12823,-33.49033 z M 513.34271,244.3931 c -0.064,-2.67942 0.33575,-15.2154 -0.51835,-21.06098 -8.2037,-56.1469 -32.8443,-105.48907 -72.4653,-145.11008 -43.2118,-43.21175 -119.1214,-67.69165 -199.02362,-72.68276 -2.47992,-0.15491 46.66758,0.11527 52.18489,1.4475 49.45819,11.9423 24.54788,6.28435 43.54985,10.14965 83.60733,17.00707 144.94288,84.39619 169.62568,166.06735 5.3454,17.68677 7.9114,31.23668 8.435,44.54017 0.2607,6.62209 0.80191,46.90878 0.52801,47.98669 -0.2737,1.07791 -1.67718,-18.49497 -1.74098,-21.17438 z"
     id="path3403"
     inkscape:connector-curvature="0"
     sodipodi:nodetypes="sssscscsscsssssscssssssssssscssssssssssccssssssssssccsssccssssccsscscsscsssscsssscccssscsssssssssssssscsscscsssssscccc" />
</svg>
