<?xml version="1.0" encoding="UTF-8" standalone="no"?>
<!-- Created with Inkscape (http://www.inkscape.org/) -->

<svg
   xmlns:dc="http://purl.org/dc/elements/1.1/"
   xmlns:cc="http://creativecommons.org/ns#"
   xmlns:rdf="http://www.w3.org/1999/02/22-rdf-syntax-ns#"
   xmlns:svg="http://www.w3.org/2000/svg"
   xmlns="http://www.w3.org/2000/svg"
   xmlns:sodipodi="http://sodipodi.sourceforge.net/DTD/sodipodi-0.dtd"
   xmlns:inkscape="http://www.inkscape.org/namespaces/inkscape"
   id="svg2"
   class="animate me_photo_nav_svg"
   version="1.1"
   inkscape:version="0.91 r13725"
   width="2000"
   height="1640"
   viewBox="0 0 2000 1640"
   sodipodi:docname="game.svg">
  <metadata
     id="metadata8">
    <rdf:RDF>
      <cc:Work
         rdf:about="">
        <dc:format>image/svg+xml</dc:format>
        <dc:type
           rdf:resource="http://purl.org/dc/dcmitype/StillImage" />
        <dc:title></dc:title>
      </cc:Work>
    </rdf:RDF>
  </metadata>
  <defs
     id="defs6" />
  <sodipodi:namedview
     pagecolor="#ffffff"
     bordercolor="#666666"
     borderopacity="1"
     objecttolerance="10"
     gridtolerance="10"
     guidetolerance="10"
     inkscape:pageopacity="0"
     inkscape:pageshadow="2"
     inkscape:window-width="1920"
     inkscape:window-height="1015"
     id="namedview4"
     showgrid="false"
     inkscape:zoom="0.279"
     inkscape:cx="1134.45"
     inkscape:cy="879.75643"
     inkscape:window-x="0"
     inkscape:window-y="0"
     inkscape:window-maximized="1"
     inkscape:current-layer="svg2" />
  <path
          style="fill:none;stroke-width:4;stroke-linecap:round;stroke-linejoin:round;stroke-miterlimit:10"     d="m 420.58428,1631.6441 c -91.2839,-19.0517 -176.7137,-62.1944 -244,-123.2217 C 78.597876,1419.5509 20.040176,1303.6462 5.9206749,1170.6237 c -2.1641,-20.3885 -2.47,-75.6515 -0.5287,-95.5 C 12.182075,1005.7024 29.870576,943.97139 60.073776,884.29019 116.50468,772.78343 213.94768,683.14343 329.08628,636.81945 c 54.263,-21.83175 105.3488,-33.39301 164.498,-37.22762 24.4925,-1.58785 1018.80032,-0.76387 1032.50002,0.85562 40.7628,4.81871 64.3473,9.31848 95.5,18.22077 60.6645,17.33565 116.7508,45.09092 167.5,82.8902 136.2743,101.50047 214.358,261.47357 210.1612,430.56528 -0.6631,26.7173 -1.4825,37.2894 -4.7276,61 -13.1412,96.0154 -55.714,190.9543 -118.6546,264.6043 -47.0607,55.0683 -103.3449,99.0685 -166.779,130.3798 -41.5691,20.5186 -81.3646,34.1556 -128.2659,43.9535 l -12.2659,2.5624 -89.9033,0 -89.9034,0 -12.8307,-2.5507 c -97.146,-19.3122 -186.5604,-65.8615 -259.0894,-134.8822 l -9.0025,-8.5671 -106.4233,0 -106.42332,0 -3.4462,3.6233 c -5.3411,5.6155 -28.3414,26.0129 -39.4461,34.982 -63.9254,51.6313 -140.746,87.7176 -222.0725,104.3181 l -15.0724,3.0766 -90.4276,-0.081 -90.4275,-0.081 -13.5,-2.8176 z m 128.5,-127.0123 c 80.2224,-5.5828 151.293,-32.6429 214,-81.4802 21.0993,-16.4325 46.8693,-41.9824 62.7709,-62.235 l 7.2291,-9.207 168.50002,-0.024 168.5,-0.024 8,10.163 c 11.0546,14.0436 37.5154,41.013 52.3857,53.3929 50.5527,42.0861 107.697,69.6438 170.825,82.3798 60.891,12.2848 122.346,9.9322 182.1646,-6.9735 67.3813,-19.043 130.5648,-58.0893 177.9485,-109.9688 25.2797,-27.6783 43.2054,-53.7348 60.218,-87.5318 20.784,-41.2891 32.3138,-79.2105 38.5346,-126.7404 2.4561,-18.7652 3.0034,-60.5245 1.0591,-80.8051 -7.3658,-76.8311 -35.4095,-146.43181 -82.8848,-205.70901 -11.8638,-14.813 -34.9047,-38.7279 -49.2507,-51.1188 -25.155,-21.7268 -55.9081,-41.8702 -84.9719,-55.65681 -39.6129,-18.79064 -78.741,-29.9112 -125.5281,-35.67615 -15.4878,-1.90836 -1017.28042,-1.90792 -1033.50002,4.6e-4 -88.3495,10.395 -165.3708,46.4499 -226.8796,106.2058 -32.6566,31.726 -56.6181,64.3179 -76.4605,104 -18.3239,36.6452 -28.9995,68.87831 -35.6041,107.50001 -4.2306,24.7391 -5.0394,35.5064 -4.9951,66.5 0.047,32.5688 1.5683,48.2724 7.477,77.1614 25.5382,124.862 112.6548,229.3811 231.9623,278.2996 52.0894,21.3577 113.403,31.3815 168.5,27.5471 z m -71.2699,-154.5585 c -13.634,-3.6706 -22.7389,-12.1174 -27.1383,-25.1769 -2.031,-6.0291 -2.0918,-7.9691 -2.0918,-66.7412 l 0,-60.5315 -59.2899,0 c -63.3067,0 -65.1544,-0.125 -74.8359,-5.0641 -6.1503,-3.1377 -12.6613,-10.2657 -16.1998,-17.7352 l -3.1744,-6.7007 0,-48 0,-48 3.2243,-6.5891 c 3.8832,-7.9357 11.0462,-14.9759 19.0576,-18.7308 l 5.7181,-2.6801 62.7144,-0.2788 62.7144,-0.2788 0.2856,-62.72121 0.2856,-62.7212 2.68,-5.7181 c 3.7427,-7.9852 10.7646,-15.1371 18.6945,-19.0407 l 6.5846,-3.2412 48.5204,0 48.5205,0 6.6681,3.262 c 10.4327,5.1036 18.1274,14.8904 20.7931,26.4466 0.5926,2.5693 0.9997,28.2559 1.0143,64.0125 l 0.024,59.72121 62.75,0.2789 62.75,0.2788 5.625,2.6397 c 10.6068,4.9775 18.4508,14.2947 21.3252,25.3303 1.28,4.9142 1.5498,13.2177 1.5498,47.6909 0,27.0966 -0.3945,43.5998 -1.1244,47.0399 -3.0837,14.5335 -13.6284,25.4174 -28.3357,29.2472 -5.0622,1.3182 -14.8918,1.552 -65.25,1.552 l -59.2899,0 0,58.9508 c 0,39.8392 -0.3645,60.6687 -1.1244,64.25 -3.0624,14.4332 -13.7299,25.4439 -28.3357,29.2472 -8.3628,2.1777 -87.2221,2.179 -95.3097,0 z m 989.24652,0.6285 c -36.0481,-5.7726 -62.3077,-33.8888 -65.9393,-70.6014 -1.3559,-13.7068 2.9719,-32.2439 10.5392,-45.1422 5.5061,-9.3851 19.9464,-23.1341 29.4235,-28.0148 12.1977,-6.2819 20.2128,-8.4432 33.5,-9.0335 9.5304,-0.4233 13.0414,-0.1438 20.5,1.6319 26.89,6.4022 46.8106,24.7035 56.1461,51.5819 2.532,7.2901 2.7819,9.2867 2.8162,22.5 0.032,12.4748 -0.2896,15.5475 -2.3053,22 -8.3433,26.7066 -29.2813,46.9478 -55.2081,53.3707 -7.9122,1.9601 -22.5858,2.8101 -29.4723,1.7074 z m -154,-153.9988 c -41.752,-6.6965 -71.0763,-45.1818 -65.4937,-85.9541 2.3051,-16.8361 8.8239,-30.5146 20.4141,-42.8353 15.9783,-16.9855 35.7682,-25.0172 59.103,-23.9871 12.8894,0.5691 20.0289,2.3387 31,7.6838 18.7208,9.1206 33.0383,25.9769 39.5079,46.5134 3.3715,10.7022 3.8589,28.3082 1.1027,39.8329 -5.2781,22.0695 -20.3933,41.1862 -40.3609,51.0457 -5.0873,2.512 -12.1747,5.2578 -15.7497,6.1017 -7.9764,1.8828 -22.7612,2.6836 -29.5234,1.599 z m 308,0 c -41.7427,-6.6844 -71.0762,-45.1812 -65.4937,-85.9529 2.3051,-16.8361 8.8239,-30.5146 20.4141,-42.8353 15.9783,-16.9855 35.7682,-25.0172 59.103,-23.9871 12.8894,0.5691 20.0289,2.3387 31,7.6838 18.7208,9.1206 33.0383,25.9769 39.5079,46.5134 3.0512,9.6856 3.8246,28.2929 1.5794,38 -3.7488,16.2077 -9.7733,26.9058 -21.987,39.044 -7.6666,7.6191 -10.597,9.7727 -18.6003,13.6693 -5.225,2.544 -12.5817,5.3688 -16.3482,6.2774 -8.0998,1.9538 -22.1223,2.7168 -29.1752,1.5874 z m -154,-154 c -36.0481,-5.7725 -62.3077,-33.8888 -65.9393,-70.60141 -1.3559,-13.7068 2.9719,-32.2439 10.5392,-45.1422 5.5007,-9.376 19.9452,-23.1322 29.4235,-28.0216 13.7507,-7.0934 20.917,-8.8177 36.5,-8.7824 15.6339,0.035 22.1622,1.4569 34.5,7.512 19.4301,9.536 34.4102,27.7712 40.2181,48.9575 2.7941,10.1923 2.5069,31.1794 -0.5611,41 -8.3842,26.83751 -29.262,46.94041 -55.5052,53.44521 -8.0307,1.9905 -22.044,2.7748 -29.1752,1.6329 z M 933.87868,544.38064 c 2.7322,-73.80774 29.6171,-144.47741 78.08612,-205.25699 10.6065,-13.30049 39.4211,-41.98824 53.1195,-52.88565 46.9247,-37.3298 102.5908,-62.30034 160.6025,-72.04257 29.8159,-5.00715 23.3027,-4.85855 244.3975,-5.5758 227.4434,-0.73785 211.3338,-0.30516 235,-6.31195 69.7817,-17.71156 127.3089,-71.00756 150.0257,-138.991208 6.8929,-20.62799 11.4743,-45.90167 11.4743,-63.2987699 l 0,-5.3940497 68.6553,0 68.6553,0 -0.6596,14.2499997 c -3.0237,65.3243499 -22.5992,125.6999579 -58.1175,179.2480379 -52.532,79.19851 -132.2058,132.57022 -226.0335,151.41489 -28.6849,5.76118 -14.6922,5.41178 -243.5,6.08029 -229.5923,0.6708 -214.9483,0.29358 -240.5,6.19515 -90.7665,20.96394 -159.4873,102.84165 -164.3467,195.81163 l -0.6533,12.5 -68.4037,0.25699 -68.40372,0.25699 0.6018,-16.25699 z"
     id="path3338"
     inkscape:connector-curvature="0"
     inkscape:transform-center-x="-43.010753"
     inkscape:transform-center-y="129.03226" />
</svg>
