<?xml version="1.0" encoding="UTF-8" standalone="no"?>
<!-- Created with Inkscape (http://www.inkscape.org/) -->

<svg
   xmlns:dc="http://purl.org/dc/elements/1.1/"
   xmlns:cc="http://creativecommons.org/ns#"
   xmlns:rdf="http://www.w3.org/1999/02/22-rdf-syntax-ns#"
   xmlns:svg="http://www.w3.org/2000/svg"
   xmlns="http://www.w3.org/2000/svg"
   xmlns:sodipodi="http://sodipodi.sourceforge.net/DTD/sodipodi-0.dtd"
   xmlns:inkscape="http://www.inkscape.org/namespaces/inkscape"
   id="svg2"
   version="1.1"
   class="animate me_photo_nav_svg"
   inkscape:version="0.91 r13725"
   width="345"
   height="385"
   viewBox="0 0 345 385"
   sodipodi:docname="skills.svg">
  <metadata
     id="metadata8">
    <rdf:RDF>
      <cc:Work
         rdf:about="">
        <dc:format>image/svg+xml</dc:format>
        <dc:type
           rdf:resource="http://purl.org/dc/dcmitype/StillImage" />
        <dc:title></dc:title>
      </cc:Work>
    </rdf:RDF>
  </metadata>
  <defs
     id="defs6" />
  <sodipodi:namedview
     pagecolor="#ffffff"
     bordercolor="#666666"
     borderopacity="1"
     objecttolerance="10"
     gridtolerance="10"
     guidetolerance="10"
     inkscape:pageopacity="0"
     inkscape:pageshadow="2"
     inkscape:window-width="1920"
     inkscape:window-height="1015"
     id="namedview4"
     showgrid="false"
     inkscape:zoom="0.921875"
     inkscape:cx="539.38436"
     inkscape:cy="208.74641"
     inkscape:window-x="0"
     inkscape:window-y="0"
     inkscape:window-maximized="1"
     inkscape:current-layer="svg2" />
  <path
          style="fill:none;stroke-width:4;stroke-linecap:round;stroke-linejoin:round;stroke-miterlimit:10"
     d="m 140.19506,384.34552 c -0.36667,-0.36666 -0.66667,-8.40386 -0.66667,-17.86043 0,-9.45656 -0.29322,-19.33303 -0.6516,-21.9477 -1.14084,-8.32335 -5.35271,-8.86667 -38.3484,-4.94684 -7.093986,0.84275 -20.612286,1.46398 -31.257566,1.43644 -16.14766,-0.0418 -19.49151,-0.32314 -24.03241,-2.02211 -5.22504,-1.95493 -11.47278,-7.44399 -15.03302,-13.20751 -2.57216,-4.16394 -2.20486,-13.52584 0.823,-20.97746 1.375,-3.38389 2.5,-8.14633 2.5,-10.5832 0,-3.86248 -0.59403,-5.0907 -4.63222,-9.57759 -6.82744,-7.58607 -7.13259,-8.66616 -3.97212,-14.0591 1.46266,-2.49585 4.0195,-5.80904 5.68185,-7.36264 l 3.02246,-2.82474 -2.0717,-1.87487 c -1.13944,-1.03118 -4.42444,-2.8102 -7.29999,-3.95338 -4.42857,-1.76058 -5.278827,-2.52092 -5.558745,-4.97088 -0.198658,-1.73874 0.446604,-3.94342 1.617788,-5.52753 1.071539,-1.44933 2.909127,-4.51863 4.083537,-6.82066 l 2.13529,-4.1855 -5.486611,-4.0532 C 18.0303,226.79737 13.423937,223.83697 10.811572,222.44796 0.97353907,217.21703 -1.7029849,212.2356 0.98164607,204.15294 3.3085921,197.14716 7.7941951,190.55112 16.038353,182.01219 c 3.982601,-4.125 9.471131,-11.1 12.196741,-15.5 4.21007,-6.79639 5.27189,-9.57974 7.05758,-18.5 1.15606,-5.775 2.31993,-15.675 2.58637,-22 2.04964,-48.65485 26.6093,-87.5288 68.528076,-108.46883 37.89109,-18.92805 95.48955,-22.89854 136.49112,-9.40888 46.05091,15.15091 81.80998,49.96348 95.40293,92.87771 4.93252,15.57245 5.72805,22.24985 5.71857,48 -0.01,26.28648 -0.92498,32.47692 -6.89415,46.62744 -3.94704,9.35683 -3.67702,8.91384 -19.81574,32.51017 -20.35936,29.76731 -26.74622,41.67047 -31.85485,59.36772 l -2.88822,10.00532 5.89138,42.98486 c 3.24026,23.64167 5.68006,43.32678 5.42179,43.74467 -0.57656,0.9329 -152.75291,1.02514 -153.68489,0.0931 z m 151.33172,-1.58333 c -8.8e-4,-0.1375 -2.47588,-18.24018 -5.5,-40.22817 -3.02411,-21.988 -5.49839,-41.82187 -5.49839,-44.07528 0,-4.99891 5.21509,-22.80044 8.90362,-30.39222 4.71343,-9.70122 10.99888,-19.92437 27.08576,-44.05433 20.77392,-31.16042 23.54393,-37.98949 24.94568,-61.5 1.12875,-18.93158 -0.25855,-39.69329 -3.50804,-52.5 C 323.80564,54.24597 274.7979,12.82085 212.52839,3.99159 201.64948,2.44906 174.87894,2.71186 161.30358,4.49446 111.36222,11.05232 74.087344,34.41101 55.157204,71.01219 c -9.29433,17.97047 -13.86739,36.01917 -15.20241,60 -0.35211,6.325 -1.51807,15.54935 -2.59103,20.49857 -2.40136,11.07676 -7.90586,20.26775 -20.469602,34.17853 -5.465004,6.05094 -9.6038759,11.74413 -11.5297609,15.85965 -4.72746103,10.10235 -3.339241,12.86698 10.2753359,20.46325 3.450124,1.925 7.996347,5.1272 10.102707,7.116 l 3.82975,3.616 -1.97863,4.61597 c -1.08826,2.53879 -2.99654,5.99276 -4.24063,7.67548 -2.910916,3.93723 -1.829445,5.80048 4.61875,7.95758 4.77552,1.59754 8.55671,4.97026 8.55671,7.63236 0,0.7655 -1.71691,2.94294 -3.81536,4.83877 -2.09845,1.89582 -4.66246,5.0199 -5.69779,6.94241 l -1.88243,3.49546 5.32869,6.12653 c 7.00376,8.0524 7.43854,11.27053 3.17455,23.49701 -3.91133,11.21529 -3.93368,14.4255 -0.13882,19.94114 4.06959,5.91494 8.00903,9.01916 14.55307,11.46761 7.49263,2.80334 26.48017,2.79899 51.29989,-0.0118 10.894296,-1.23374 22.526816,-1.95043 28.404126,-1.75 12.62819,0.43067 13.77222,1.44371 13.77773,12.20024 0.002,3.92657 0.29701,13.55172 0.65555,21.38922 l 0.65189,14.25 74.34445,0 c 40.88945,0 74.34373,-0.1125 74.34284,-0.25 z m -61.3434,-155.57874 c -0.93997,-1.03865 -1.66133,-3.52288 -1.66967,-5.75 -0.0144,-3.85904 -0.1084,-3.95732 -5.92208,-6.194 l -5.9074,-2.27274 -3.71747,2.52274 c -4.86048,3.29841 -7.92302,3.19194 -11.51529,-0.40034 -3.52731,-3.5273 -3.84714,-7.90805 -0.87123,-11.93318 2.02077,-2.73324 2.02456,-2.86117 0.25,-8.44575 l -1.80185,-5.67046 -4.29545,-0.0138 c -7.75741,-0.0248 -11.02861,-5.71241 -7.77045,-13.51029 1.42961,-3.42154 2.78575,-4.14028 8.92328,-4.72926 2.38418,-0.2288 3.14449,-1.03368 4.59111,-4.86023 l 1.73373,-4.58602 -2.84111,-3.17976 c -3.59847,-4.02739 -3.59778,-7.26978 0.002,-11.29909 3.4494,-3.86055 7.46981,-4.18632 11.98512,-0.97114 2.93829,2.09225 3.24043,2.12288 5.61201,0.56897 1.37859,-0.90329 4.43091,-2.2089 6.78294,-2.90136 4.11915,-1.21271 4.29678,-1.43234 4.83012,-5.97196 0.30453,-2.59212 1.20453,-5.1247 2,-5.62797 0.79546,-0.50326 3.96406,-0.92192 7.04131,-0.93034 6.65738,-0.0182 8.90499,1.80918 8.90499,7.24012 0,3.39943 0.31071,3.7402 5.63101,6.17592 l 5.63102,2.57796 2.32123,-2.50465 c 3.41338,-3.6831 8.45244,-3.43938 11.82785,0.57207 3.29421,3.91494 3.29312,7.57877 -0.003,11.01945 l -2.59214,2.70561 2.34214,6.08443 c 2.33363,6.06231 2.35695,6.08448 6.41783,6.0991 5.61746,0.0202 8.42431,3.07047 8.42431,9.15482 0,5.95704 -2.88794,8.85986 -8.81445,8.85986 -2.67502,0 -4.19012,0.45112 -4.19822,1.25 -0.007,0.6875 -1.30842,3.80467 -2.89211,6.92704 l -2.87945,5.67704 2.39211,2.24727 c 3.16561,2.97393 3.17483,7.87717 0.0217,11.54289 -3.22449,3.7487 -8.62434,3.81556 -12.28774,0.15215 -2.58566,-2.58566 -2.63374,-2.59244 -6.97273,-0.9843 -4.28797,1.58923 -4.36912,1.70446 -4.36912,6.20361 0,2.52136 -0.54,5.1243 -1.2,5.7843 -0.67296,0.67296 -3.89889,1.2 -7.34501,1.2 -4.6832,0 -6.53871,-0.43503 -7.8,-1.82874 z m 12.77358,-1.74269 c 0.93494,-0.93494 1.57143,-3.29063 1.57143,-5.81598 0,-4.17942 0.0809,-4.27808 5.26933,-6.42858 6.71944,-2.78505 6.92302,-2.76769 9.57255,0.81599 2.69212,3.64129 5.43579,3.81324 8.70357,0.54545 3.14293,-3.14292 3.09367,-3.74794 -0.65252,-8.01461 l -3.10707,-3.53876 3.06288,-6.24604 c 1.68458,-3.43532 3.29363,-7.03354 3.57568,-7.99604 0.37996,-1.29664 1.56897,-1.75 4.58965,-1.75 4.61467,0 8.98593,-3.40519 8.98593,-7 0,-3.50694 -4.37529,-7 -8.76797,-7 -3.84409,0 -3.86916,-0.0263 -6.54545,-6.87833 -1.47762,-3.78309 -2.68658,-7.30464 -2.68658,-7.82569 0,-0.52104 1.14547,-2.02346 2.54548,-3.33871 3.21398,-3.01937 2.91211,-6.54767 -0.79601,-9.30402 l -2.75054,-2.04455 -3.29707,3.19565 c -1.81339,1.75761 -3.72565,3.19377 -4.24947,3.19146 -0.52381,-0.002 -3.16616,-1.1273 -5.87187,-2.5 -2.70571,-1.37269 -5.51821,-2.49581 -6.25,-2.49581 -0.90773,0 -1.33052,-1.41191 -1.33052,-4.4433 0,-5.09894 -2.40476,-7.5567 -7.39377,-7.5567 -4.34401,0 -6.60623,2.55033 -6.60623,7.44758 0,4.07794 -0.067,4.15553 -4.64452,5.37983 -2.55449,0.68322 -5.88646,2.12655 -7.40437,3.20741 -3.68265,2.62227 -6.1221,2.47652 -8.95111,-0.53482 -2.88363,-3.06948 -4.68372,-3.14576 -7.68555,-0.32569 -3.13168,2.94207 -2.91038,5.61563 0.77999,9.42312 l 3.09443,3.19265 -2.34443,6.09029 c -2.26814,5.89207 -2.46209,6.09076 -5.95958,6.10495 -5.10945,0.0207 -8.88486,3.22068 -8.88486,7.53056 0,4.23786 2.92121,6.47857 8.47251,6.4988 3.98425,0.0145 4.05165,0.0775 6.27749,5.86407 2.78836,7.249 2.78613,7.43837 -0.13856,11.74244 -2.6726,3.93309 -2.44569,6.68107 0.7357,8.9094 2.99061,2.09471 4.96681,1.82858 7.65286,-1.03059 2.9358,-3.12502 3.67215,-3.11368 12.12167,0.18658 6.83229,2.6686 6.87833,2.7121 6.87833,6.5 0,4.89535 2.77434,7.81342 7.42857,7.81342 1.88572,0 4.13572,-0.70714 5,-1.57143 z m -16.2603,-27.5743 c -11.96122,-5.92065 -14.37107,-22.7041 -4.65504,-32.42013 12.92076,-12.92076 34.48677,-4.06715 34.48677,14.15804 0,2.90269 -0.4776,6.54442 -1.06133,8.09272 -1.43949,3.81811 -6.73496,9.25163 -10.65655,10.93434 -4.85881,2.08487 -13.05581,1.7387 -18.11385,-0.76497 z m 17.92806,-2.40408 c 3.89781,-2.01564 7.69335,-6.95542 8.96073,-11.6621 2.7888,-10.35681 -6.29462,-21.78809 -17.31305,-21.78809 -4.67066,0 -11.82045,3.88684 -14.46159,7.86175 -4.75739,7.15987 -4.17881,15.19245 1.53339,21.28867 6.0967,6.50655 13.9461,8.09254 21.28052,4.29977 z m -93.76298,-24.88239 c -1.19166,-0.86045 -2.9403,-3.5902 -3.88586,-6.06613 -1.70649,-4.46836 -1.75459,-4.50167 -6.50156,-4.50167 -2.6303,0 -5.38166,-0.22753 -6.11414,-0.50563 -0.83016,-0.31518 -2.27344,1.27703 -3.83179,4.22715 -3.20873,6.07448 -7.04028,7.46594 -13.07054,4.74667 -2.22804,-1.0047 -4.47364,-2.61648 -4.99022,-3.58172 -1.34334,-2.51005 -1.09687,-7.97386 0.48887,-10.83731 1.2889,-2.32745 1.06682,-2.74398 -4.41068,-8.27269 -5.326,-5.37579 -5.97399,-5.74348 -8.45777,-4.79915 -7.790176,2.96182 -13.395876,-0.34463 -14.308286,-8.43956 -0.60875,-5.4008 1.08808,-7.88676 6.99863,-10.25339 l 3.75,-1.50153 0,-7.91617 c 0,-7.71658 -0.0693,-7.94244 -2.75,-8.95803 -6.84835,-2.59456 -9.09546,-8.43923 -5.73965,-14.92866 2.58953,-5.00759 7.23998,-6.24982 13.516816,-3.6106 3.21688,1.3526 3.31136,1.31277 7.70959,-3.25 4.18615,-4.34276 4.38723,-4.80328 3.35802,-7.69038 -1.94922,-5.46782 -1.38901,-10.0524 1.50667,-12.33014 3.36214,-2.64466 8.87044,-3.66051 12.03362,-2.21927 1.39562,0.63588 3.30274,2.98886 4.35705,5.37565 l 1.87502,4.24476 9.47262,-0.31642 9.47262,-0.31642 1.26509,-3.0542 c 2.81716,-6.80121 8.42016,-8.63604 14.69292,-4.81152 4.9327,3.00748 6.00594,6.18628 3.98556,11.80472 l -1.65629,4.60596 5.20017,5.54394 c 2.86009,3.04917 5.87517,5.41272 6.70017,5.25234 10.73909,-2.08768 13.8632,-0.94608 15.88586,5.80496 1.79707,5.99808 0.12813,9.62307 -5.55127,12.05754 l -4.33459,1.85803 -0.0136,5.78553 c -0.008,3.18205 -0.26147,6.70808 -0.56436,7.83562 -0.44684,1.66347 0.2625,2.4178 3.76142,4 2.54819,1.15228 4.84247,3.06608 5.60866,4.67852 2.72007,5.72442 -2.4608,14.7714 -8.45905,14.7714 -1.31849,0 -3.93224,-0.64136 -5.80832,-1.42523 -3.3841,-1.41397 -3.44513,-1.39184 -7.71789,2.79825 -2.36874,2.32292 -5.60115,5.13765 -7.18312,6.25496 -2.53509,1.79048 -2.7361,2.29347 -1.69437,4.23995 1.99729,3.73197 0.95012,10.15 -2.0159,12.35534 -3.57283,2.65652 -9.836,3.32592 -12.58007,1.34453 z m 9.11384,-2.54772 c 3.92359,-1.49175 5.05007,-4.8942 3.13659,-9.4738 -2.17747,-5.21142 -2.0465,-5.84253 1.66622,-8.02926 1.7875,-1.0528 5.40961,-4.12752 8.04913,-6.8327 l 4.79913,-4.91851 4.42522,1.69001 c 5.89498,2.25131 8.48346,1.71691 10.77938,-2.22541 2.83416,-4.86656 1.67271,-7.70236 -4.41894,-10.78923 -4.28787,-2.17283 -4.99062,-2.91645 -4.49667,-4.75824 0.32199,-1.20062 0.59159,-5.43293 0.5991,-9.40514 l 0.0136,-7.2222 5.01329,-2.15666 c 5.67396,-2.44087 6.9858,-5.07272 4.96284,-9.95657 -1.89398,-4.57246 -4.2037,-5.35966 -10.03899,-3.42149 l -4.95867,1.647 -6.62314,-6.83394 -6.62314,-6.83394 1.63391,-4.63421 c 2.19575,-6.22778 2.07895,-7.37056 -1.00096,-9.79321 -5.07763,-3.99406 -10.05091,-2.14103 -12.40907,4.6236 l -1.06893,3.06632 -11.54375,-0.0321 -11.54375,-0.0321 -1.87339,-4.37043 c -1.03036,-2.40374 -2.56367,-4.63532 -3.40735,-4.95907 -2.89209,-1.1098 -8.48648,0.65201 -10.15465,3.19795 -1.49454,2.28097 -1.49395,2.80502 0.008,6.7367 0.8955,2.34484 1.62818,4.8597 1.62818,5.5886 0,0.72889 -2.48839,3.81365 -5.52976,6.85502 l -5.52976,5.52976 -4.08602,-1.84254 c -6.744276,-3.04125 -10.013406,-1.85375 -11.771356,4.27589 -1.13597,3.96087 0.40423,6.30387 5.71952,8.70073 l 3.94782,1.78022 -0.28441,9.6544 -0.28441,9.65439 -4.53667,2.21458 c -5.90516,2.88261 -7.14142,5.16143 -5.25257,9.68209 2.09241,5.00784 4.29406,5.83951 10.34022,3.90603 l 5.029966,-1.60852 6.08389,6.40291 c 3.34614,3.5216 6.09956,7.13545 6.11871,8.03079 0.0192,0.89533 -0.66001,3.29086 -1.50926,5.3234 -1.96761,4.70916 -1.13351,7.25795 3.02402,9.24054 4.86125,2.31817 7.70259,1.17051 10.29068,-4.15656 l 2.2034,-4.53526 7.89055,0 c 8.29704,0 9.30163,0.4731 10.61718,5 1.91708,6.59684 4.99867,8.28865 10.96545,6.02008 z m -23.94719,-29.95515 c -5.01926,-1.22193 -9.12765,-3.81199 -12.73907,-8.03113 -10.73636,-12.54301 -5.98965,-31.38724 9.59496,-38.09155 10.13086,-4.35818 22.42893,-0.59298 29.10944,8.91222 2.62487,3.73474 3.07453,5.34981 3.38346,12.15262 0.32004,7.04738 0.0751,8.36203 -2.40754,12.92352 -5.40215,9.92553 -16.14291,14.76316 -26.94125,12.13432 z m 14,-3.94377 c 8.39805,-3.85243 12.89731,-10.66712 12.95447,-19.62116 0.11735,-18.38332 -21.34659,-28.31373 -35.09915,-16.23882 -4.93009,4.32867 -7.49818,9.89039 -7.49818,16.23882 0,15.35758 15.93866,25.90767 29.64286,19.62116 z m 87.7,-14.32116 c -0.66,-0.66 -1.2,-2.57938 -1.2,-4.26528 0,-2.78313 -0.4697,-3.23211 -5.10288,-4.87766 -5.03894,-1.78968 -5.13059,-1.78635 -7.31445,0.26528 -2.80432,2.63452 -5.603,2.63611 -8.94781,0.005 -3.25517,-2.56052 -3.60372,-7.74063 -0.69779,-10.37047 1.7502,-1.5839 1.80547,-2.05711 0.573,-4.90499 -0.75024,-1.73358 -1.60779,-3.93946 -1.90568,-4.90196 -0.37713,-1.21851 -1.57695,-1.75 -3.95056,-1.75 -3.90113,0 -5.37877,-1.37468 -6.27056,-5.83363 -0.91914,-4.59571 1.69909,-8.16637 5.98809,-8.16637 2.92534,0 3.50589,-0.45984 4.82716,-3.82348 1.44154,-3.66978 1.4045,-3.93672 -0.92139,-6.64073 -1.78067,-2.07014 -2.26002,-3.50921 -1.80758,-5.42652 1.31335,-5.56556 8.43417,-8.08311 11.93167,-4.21842 1.67321,1.84887 1.84318,1.83253 7.65499,-0.73613 5.39347,-2.38369 5.94379,-2.91059 5.94379,-5.69078 0,-4.06791 1.60082,-5.46386 6.26574,-5.46386 5.65807,0 7.73426,1.4494 7.73426,5.39933 0,3.03024 0.40884,3.48509 4.55617,5.06897 4.34244,1.6584 4.64795,1.65695 6.5129,-0.0308 6.60802,-5.98017 16.0151,3.5862 9.91336,10.08122 l -2.01757,2.1476 2.06436,4.66685 c 1.87684,4.2429 2.37486,4.66684 5.48239,4.66684 4.04592,0 5.48839,2.03274 5.48839,7.73426 0,4.71088 -1.39628,6.26574 -5.62669,6.26574 -2.94644,0 -3.44948,0.48663 -5.79173,5.60278 l -2.56504,5.60278 1.99173,2.53208 c 2.53407,3.22155 2.51432,5.32827 -0.0808,8.6275 -2.5277,3.21345 -7.33288,3.53895 -10.36297,0.70198 -1.81845,-1.70255 -2.51131,-1.79255 -5.81445,-0.75531 -3.25814,1.02312 -3.75,1.57831 -3.75,4.23288 0,4.19624 -1.61558,5.45531 -7,5.45531 -2.53,0 -5.14,-0.54 -5.8,-1.2 z m 8.86574,-1.83518 c 1.31768,-0.7052 1.93426,-2.09636 1.93426,-4.36415 0,-2.99922 0.42427,-3.49098 4.28343,-4.96481 5.47272,-2.09005 5.37653,-2.09977 8.94612,0.90384 2.71332,2.28311 3.23307,2.39782 5.14436,1.1354 2.87046,-1.89596 3.1516,-4.88954 0.67011,-7.13526 -2.5987,-2.35179 -2.56565,-2.99516 0.46017,-8.95932 1.37269,-2.70571 2.49581,-5.51821 2.49581,-6.25 0,-0.84865 1.24172,-1.33052 3.42857,-1.33052 1.88572,0 4.13572,-0.70714 5,-1.57143 3.48979,-3.48979 0.71728,-8.418 -4.75,-8.44325 -2.95861,-0.0137 -3.33874,-0.43085 -5.49318,-6.02886 l -2.3146,-6.01419 2.61291,-3.10527 2.61291,-3.10526 -2.22262,-2.36587 c -2.74441,-2.92129 -3.62848,-2.94514 -6.57463,-0.17737 l -2.32955,2.18849 -5.73491,-2.04743 c -5.35281,-1.91102 -5.77551,-2.29696 -6.34441,-5.79265 -0.64953,-3.99114 -2.13317,-5.49689 -5.44049,-5.5216 -2.95267,-0.022 -4.45,1.90128 -4.45,5.71607 0,2.28651 -0.54888,3.51217 -1.75,3.90777 -0.9625,0.31701 -4.11769,1.68852 -7.01153,3.0478 l -5.26153,2.47143 -3.06093,-2.5756 c -2.38845,-2.00974 -3.46952,-2.35692 -4.92074,-1.58025 -3.31757,1.77551 -3.47402,4.88833 -0.40661,8.09001 2.76168,2.88258 2.77009,2.93194 1.09718,6.44008 -0.92721,1.94438 -1.68584,4.19497 -1.68584,5.00131 0,0.96929 -1.03884,1.46607 -3.06574,1.46607 -4.57319,0 -6.93426,1.64635 -6.93426,4.83518 0,3.75693 1.69007,5.16482 6.2,5.16482 2.68044,0 3.8,0.43405 3.8,1.47325 0,0.81029 0.98783,3.50649 2.19517,5.99157 l 2.19517,4.51832 -2.83946,2.96375 c -2.74657,2.8668 -2.78491,3.04699 -1.17211,5.50843 2.0488,3.12687 4.26395,3.22895 7.34089,0.33832 2.1281,-1.99925 2.65044,-2.08555 5.56445,-0.91931 1.76874,0.70788 4.67839,1.72189 6.46589,2.25336 2.80258,0.83329 3.25,1.41415 3.25,4.21931 0,5.15607 3.41101,7.10895 8.06574,4.61782 z M 235.92946,97.10676 c -5.75286,-2.61264 -8.72049,-7.16673 -9.14198,-14.02917 -0.67187,-10.93917 6.11806,-17.47875 17.47356,-16.82929 5.26216,0.30096 6.72167,0.81639 9.37316,3.31018 8.90586,8.37613 7.37529,21.93068 -3.07182,27.20371 -5.39205,2.72156 -9.2014,2.81126 -14.63292,0.34457 z m 13.18204,-2.70103 c 7.71437,-3.66071 9.97217,-14.41364 4.36691,-20.79769 -5.67425,-6.46261 -13.13637,-7.00517 -19.50001,-1.41781 -5.17252,4.54153 -6.02052,9.49998 -2.92815,17.12154 1.17044,2.88468 7.61074,6.70042 11.30915,6.70042 1.8517,0 4.89015,-0.72291 6.7521,-1.60646 z"
     id="path3338"
     inkscape:connector-curvature="0" />
</svg>
